# xmcd
#
# Track frame offsets: 
#        150
#        18554
#        39781
#        54202
#        73654
#        89198
#        104283
#        119078
#        139637
#        164730
#        185513
#
# Disc length: 2744 seconds
#
# Revision: 2
# Processed by: cddbd v1.5.2PL0 Copyright (c) Steve Scherf et al.
# Submitted via: ExactAudioCopy v1.0b3
#
DISCID=9c0ab60b
DTITLE=レミオロメン - 朝顔
DYEAR=2003
DGENRE=Rock
TTITLE0=豆電球
TTITLE1=雨上がり
TTITLE2=日めくりカレンダー
TTITLE3=ビールとプリン
TTITLE4=朝顔
TTITLE5=昭和
TTITLE6=すきま風
TTITLE7=フェスタ
TTITLE8=電話
TTITLE9=タクシードライバー
TTITLE10=追いかけっこ
EXTD=YEAR: 2003
EXTT0=
EXTT1=
EXTT2=
EXTT3=
EXTT4=
EXTT5=
EXTT6=
EXTT7=
EXTT8=
EXTT9=
EXTT10=
PLAYORDER=
